<?xml version="1.0" encoding="utf-8"?>
<!-- Generator: Adobe Illustrator 26.0.1, SVG Export Plug-In . SVG Version: 6.00 Build 0)  -->
<svg version="1.1" id="Layer_1" xmlns="http://www.w3.org/2000/svg" xmlns:xlink="http://www.w3.org/1999/xlink" x="0px" y="0px"
	 viewBox="0 0 512 512" style="enable-background:new 0 0 512 512;" xml:space="preserve">
<style type="text/css">
	.st0{display:none;}
	.st1{display:inline;fill:#FFFFFF;}
	.st2{display:inline;}
	.st3{fill:none;stroke:#000000;stroke-width:1.3164;stroke-linecap:round;stroke-linejoin:round;stroke-miterlimit:10;}
	.st4{fill:none;stroke:#000000;stroke-width:1.3164;stroke-linecap:round;stroke-linejoin:round;stroke-miterlimit:9.9999;}
	.st5{fill:#E9E9F0;stroke:#000000;stroke-width:1.3164;stroke-linecap:round;stroke-linejoin:round;stroke-miterlimit:10;}
	.st6{fill:#FFFFFF;stroke:#000000;stroke-width:1.3164;stroke-linecap:round;stroke-linejoin:round;stroke-miterlimit:10;}
	.st7{fill:none;stroke:#000000;stroke-width:2.1777;stroke-linecap:round;stroke-linejoin:round;stroke-miterlimit:10;}
	.st8{fill:none;stroke:#000000;stroke-width:2.1777;stroke-linecap:round;stroke-linejoin:round;stroke-miterlimit:9.9999;}
	.st9{fill:#E9E9F0;stroke:#000000;stroke-width:2.1777;stroke-linecap:round;stroke-linejoin:round;stroke-miterlimit:10;}
	.st10{fill:#FFFFFF;stroke:#000000;stroke-width:2.1777;stroke-linecap:round;stroke-linejoin:round;stroke-miterlimit:10;}
</style>
<g id="Layer_1_00000034799515549240836040000013597605592489458569_">
	<g class="st0">
		<rect x="81.9" y="103.4" class="st1" width="329.9" height="329.9"/>
		<path class="st2" d="M411.2,103.9v328.8H82.4V103.9H411.2 M412.3,102.8h-331v331h331V102.8L412.3,102.8z"/>
	</g>
	<g class="st0">
		<circle class="st1" cx="1273.8" cy="-159.7" r="165"/>
		<path class="st2" d="M1273.8-324.2c43.9,0,85.2,17.1,116.3,48.2s48.2,72.4,48.2,116.3s-17.1,85.2-48.2,116.3
			s-72.4,48.2-116.3,48.2s-85.2-17.1-116.3-48.2s-48.2-72.4-48.2-116.3s17.1-85.2,48.2-116.3
			C1188.5-307.1,1229.9-324.2,1273.8-324.2 M1273.8-325.2c-91.4,0-165.5,74.1-165.5,165.5S1182.4,5.8,1273.8,5.8
			s165.5-74.1,165.5-165.5S1365.2-325.2,1273.8-325.2L1273.8-325.2z"/>
	</g>
	<g>
		<path class="st3" d="M1376.1-272.1L1376.1-272.1c-25.1-23.6-58.9-38-96-38c-77.7,0-140.7,63.2-140.7,141.2s63,141.2,140.7,141.2
			c37.5,0,71.5-14.7,96.7-38.7c6.5-6.2,12.5-13.1,17.8-20.5c16.5-23.1,26.2-51.5,26.2-82.1c0-0.4,0-0.8,0-1.3c0-2.6-0.1-5.2-0.3-7.8
			l0,0c-0.6-9.1-2-17.9-4.2-26.5"/>
		
			<ellipse transform="matrix(0.2827 -0.9592 0.9592 0.2827 1109.0482 1184.7448)" class="st4" cx="1346.7" cy="-149.2" rx="105.3" ry="70.7"/>
		<path class="st3" d="M1420.7-173.8C1420.7-173.9,1420.7-173.9,1420.7-173.8c0-0.1-0.1-0.2-0.1-0.3l0,0
			c-5.9-25.6-20.4-45.1-41.1-51.3c-37.4-11.2-81.1,24.9-97.7,80.7c-4.6,15.4-6.6,30.6-6.3,44.9l0,0"/>
		<path class="st3" d="M1273.4-141.3L1273.4-141.3c-0.9-15.7,1-32.7,6.1-49.9c1.9-6.4,4.1-12.5,6.7-18.3"/>
		<path class="st3" d="M1297.7-230.8c20.7-31.5,51.1-48.8,78.4-41.4c0.4,0.1,0.7,0.2,1.1,0.3c31.1,9.3,48,48.3,43.4,93.1
			c0,0,0,0,0,0.1c0,0.2,0,0.5-0.1,0.7"/>
		<path class="st3" d="M1219.1-264.7"/>
		<path class="st3" d="M1180.9-242.8"/>
		<path class="st3" d="M1302.9-302.2"/>
		<path class="st5" d="M1268.8-239"/>
		<path class="st3" d="M1297.7-241.1c0,0,0,32.4-6.4,32.8c0,0-9.3-0.5-16.6-7.3c-19-17.8-39.9,51.8-39.9,51.8"/>
		<path class="st3" d="M1245.9-247.4c0,0-10.7,0.8-16.5-2.7"/>
		<path class="st3" d="M1292.9-309.6c0,0,7.3,11.6,2.7,19.3c-4.6,7.7-35.2,43.6-32.7,45.7s9.3,2.4,15.1,0.6"/>
		<path class="st3" d="M1209.2-221.2c0,0-15.5,7.2-19.7,7.3c-8.7,0.1-13.2-20.8-13.2-20.8"/>
		<path class="st3" d="M1296.5-294.7c0,0-11.7,1.3-18.4-2.5"/>
		<path class="st6" d="M1224.3-304.3c0.3-1.2,4.6-1.7,8.1-1.8c2.8-0.1,5.2,2,5.4,4.8c0.4,5.2,0,13.7-5.4,20.8
			c-8.5,11.2-42.7,3.4-42.7,3.4"/>
		<path class="st6" d="M1224.1-288.7c0,0,4.6-13.5-1.3-17.2c-2.2-1.3-9.3-1.2-10.7,4"/>
		<path class="st6" d="M1210.3-292.1c3.1-0.1,2.5-12.5,1-12.7c0,0-6.3-2.4-10-0.6c-8.5,4.3-11.7,23.8-11.7,28.3"/>
	</g>
	<g>
		<path class="st7" d="M105.6,416.3L105.6,416.3c41.5,39,97.4,62.9,158.8,62.9c128.5,0,232.8-104.6,232.8-233.6S392.9,12,264.4,12
			c-62,0-118.3,24.3-160,64C93.7,86.3,83.7,97.7,75,109.9c-27.3,38.2-43.3,85.2-43.3,135.8c0,0.7,0,1.3,0,2.2
			c0,4.3,0.2,8.6,0.5,12.9l0,0c1,15.1,3.3,29.6,6.9,43.8"/>
		
			<ellipse transform="matrix(0.2827 -0.9592 0.9592 0.2827 -93.4789 300.4927)" class="st8" cx="154.2" cy="212.7" rx="174.2" ry="117"/>
		<path class="st7" d="M31.8,253.5C31.8,253.7,31.8,253.7,31.8,253.5c0,0.2,0.2,0.3,0.2,0.5l0,0c9.8,42.4,33.7,74.6,68,84.9
			c61.9,18.5,134.2-41.2,161.6-133.5c7.6-25.5,10.9-50.6,10.4-74.3l0,0"/>
		<path class="st7" d="M275.5,199.8L275.5,199.8c1.5,26-1.7,54.1-10.1,82.6c-3.1,10.6-6.8,20.7-11.1,30.3"/>
		<path class="st7" d="M235.3,347.8c-34.2,52.1-84.5,80.7-129.7,68.5c-0.7-0.2-1.2-0.3-1.8-0.5c-51.4-15.4-79.4-79.9-71.8-154
			c0,0,0,0,0-0.2c0-0.3,0-0.8,0.2-1.2"/>
		<path class="st7" d="M365.3,403.9"/>
		<path class="st7" d="M428.5,367.7"/>
		<path class="st7" d="M226.7,466.1"/>
		<path class="st9" d="M283.1,361.4"/>
		<path class="st7" d="M235.3,364.9c0,0,0-53.6,10.6-54.3c0,0,15.4,0.8,27.5,12.1c31.4,29.4,66-85.7,66-85.7"/>
		<path class="st7" d="M321,375.3c0,0,17.7-1.3,27.3,4.5"/>
		<path class="st7" d="M243.4,478.2c0,0-12.1-19.2-4.5-31.9s58.2-72.1,54.1-75.6c-4.1-3.5-15.4-4-25-1"/>
		<path class="st7" d="M381.7,331.9c0,0,25.6-11.9,32.6-12.1c14.4-0.2,21.8,34.4,21.8,34.4"/>
		<path class="st7" d="M237.3,453.5c0,0,19.4-2.2,30.4,4.1"/>
		<path class="st10" d="M356.7,469.4c-0.5,2-7.6,2.8-13.4,3c-4.6,0.2-8.6-3.3-8.9-7.9c-0.7-8.6,0-22.7,8.9-34.4
			c14.1-18.5,70.6-5.6,70.6-5.6"/>
		<path class="st10" d="M357,443.6c0,0-7.6,22.3,2.2,28.5c3.6,2.2,15.4,2,17.7-6.6"/>
		<path class="st10" d="M379.9,449.2c-5.1,0.2-4.1,20.7-1.7,21c0,0,10.4,4,16.5,1c14.1-7.1,19.4-39.4,19.4-46.8"/>
	</g>
</g>
<g id="Layer_2_00000101086571573452501480000003825011701546200751_">
</g>
</svg>
