<?xml version="1.0" encoding="utf-8"?>
<!-- Generator: Adobe Illustrator 26.0.1, SVG Export Plug-In . SVG Version: 6.00 Build 0)  -->
<svg version="1.1" id="Layer_1" xmlns="http://www.w3.org/2000/svg" xmlns:xlink="http://www.w3.org/1999/xlink" x="0px" y="0px"
	 viewBox="0 0 512 512" style="enable-background:new 0 0 512 512;" xml:space="preserve">
<style type="text/css">
	.st0{opacity:0.65;fill:url(#SVGID_1_);}
	.st1{stroke:#000000;stroke-width:1.5858;stroke-miterlimit:10;}
	.st2{fill:none;stroke:#000000;stroke-width:1.5858;stroke-miterlimit:10;}
	.st3{stroke:#000000;stroke-width:1.6132;stroke-miterlimit:10;}
	.st4{fill:url(#SVGID_00000040532831816489704400000004775488013729175939_);}
</style>
<image style="display:none;overflow:visible;" width="612" height="502" xlink:href="../../Desktop/istockphoto-877235850-612x612.jpg"  transform="matrix(0.9856 0 0 0.996 26 69)">
</image>
<linearGradient id="SVGID_1_" gradientUnits="userSpaceOnUse" x1="250.2608" y1="444" x2="250.2608" y2="350.3019">
	<stop  offset="0" style="stop-color:#EAEAEA"/>
	<stop  offset="0.3929" style="stop-color:#EAE8E8"/>
	<stop  offset="0.5344" style="stop-color:#EAE1E1"/>
	<stop  offset="0.6353" style="stop-color:#EBD6D6"/>
	<stop  offset="0.7169" style="stop-color:#ECC5C5"/>
	<stop  offset="0.7868" style="stop-color:#ECAFAF"/>
	<stop  offset="0.8487" style="stop-color:#EE9393"/>
	<stop  offset="0.9046" style="stop-color:#EF7373"/>
	<stop  offset="0.9544" style="stop-color:#F04F4F"/>
	<stop  offset="1" style="stop-color:#F22626"/>
</linearGradient>
<path class="st0" d="M26,444c24.6-18.9,99.7-97.4,224.2-93.6C361,353.8,448.4,424,474.5,444c-34.4-20.5-118.3-71-224.2-72.6
	C136.8,369.7,60.4,423.6,26,444z"/>
<path class="st1" d="M192.2,142.3c-19.7-11.6-46.8-24.4-80.7-32.3c-15.2-3.5-29.3-5.5-41.9-6.5C80,139.4,90.2,176,100.2,213.3
	c9.7,36,18.8,71.5,27.4,106.5c13.7-1.1,30.8-1.2,50,1.6c31.6,4.7,56.3,15.4,72.6,24.2c-11.6-8.2-28.3-18.2-50-25.8
	c-23.7-8.3-44.8-10.7-59.7-11.3c-8-54.7-21.2-112.1-41.9-171c-2.1-6-4.3-11.9-6.5-17.7c14.2,2,29.3,4.6,45.2,8.1
	C157.2,132.1,175.5,137.1,192.2,142.3z"/>
<path class="st2" d="M119.6,76.2"/>
<path class="st3" d="M249.5,344.8c-22.7-1.3-50.7-1.1-82.3,3.2c-29.7,4.1-55.2,10.8-75.8,17.7c-3.7-25.4-9.7-54.3-19.4-85.5
	c-14.4-46.4-32.9-84.8-50-114.5c11.8,0,23.7,0,35.5,0c2.2,0,4.3,0,6.5,0c0,2.2,0,4.3,0,6.5c-2.9-0.3-7.6-0.3-12.9,1.6
	c-2.6,0.9-4.8,2.1-6.5,3.2c11.5,21.4,23.4,46.7,33.9,75.8c13.4,37.2,21.2,71.3,25.8,100c5-2.1,12.8-5.2,22.6-8.1
	c8.2-2.4,42.6-11.9,88.7-6.5C223.9,339.3,235.6,341.1,249.5,344.8z"/>
<path class="st3" d="M248.6,345.6c-18.4-3.3-40.1-5.9-64.5-6.5c-27.7-0.6-52.2,1.7-72.6,4.8c-7.9-43.9-20.1-92.9-38.7-145.2
	c-8.2-22.9-16.9-44.4-25.8-64.5c13.4,0.5,26.9,1.1,40.3,1.6c0,2.2,0,4.3,0,6.5c-3-0.7-7.6-1.2-12.9,0c-1.8,0.4-3.5,1-4.8,1.6
	c5.5,14.6,10.9,29.6,16.1,45.2c16.4,49.3,28.4,96.4,37.1,140.3c12.7-1.6,27.4-2.4,43.6-1.6C200.5,329.5,228.6,337.7,248.6,345.6z"/>
<path class="st1" d="M305.9,142.3c19.7-11.6,46.8-24.4,80.7-32.3c15.2-3.5,29.3-5.5,41.9-6.5c-10.4,35.8-20.6,72.4-30.6,109.7
	c-9.7,36-18.8,71.5-27.4,106.5c-13.7-1.1-30.8-1.2-50,1.6c-31.6,4.7-56.3,15.4-72.6,24.2c11.6-8.2,28.3-18.2,50-25.8
	c23.7-8.3,44.8-10.7,59.7-11.3c8-54.7,21.2-112.1,41.9-171c2.1-6,4.3-11.9,6.5-17.7c-14.2,2-29.3,4.6-45.2,8.1
	C340.9,132.1,322.6,137.1,305.9,142.3z"/>
<path class="st3" d="M248.6,344.8c22.7-1.3,50.7-1.1,82.3,3.2c29.7,4.1,55.2,10.8,75.8,17.7c3.7-25.4,9.7-54.3,19.4-85.5
	c14.4-46.4,32.9-84.8,50-114.5c-11.8,0-23.7,0-35.5,0c-2.2,0-4.3,0-6.5,0c0,2.2,0,4.3,0,6.5c2.9-0.3,7.6-0.3,12.9,1.6
	c2.6,0.9,4.8,2.1,6.5,3.2c-11.5,21.4-23.4,46.7-33.9,75.8c-13.4,37.2-21.2,71.3-25.8,100c-5-2.1-12.8-5.2-22.6-8.1
	c-8.2-2.4-42.6-11.9-88.7-6.5C274.2,339.3,262.5,341.1,248.6,344.8z"/>
<path class="st3" d="M249.5,345.6c18.4-3.3,40.1-5.9,64.5-6.5c27.7-0.6,52.2,1.7,72.6,4.8c7.9-43.9,20.1-92.9,38.7-145.2
	c8.2-22.9,16.9-44.4,25.8-64.5c-13.4,0.5-26.9,1.1-40.3,1.6c0,2.2,0,4.3,0,6.5c3-0.7,7.6-1.2,12.9,0c1.8,0.4,3.5,1,4.8,1.6
	c-5.5,14.6-10.9,29.6-16.1,45.2c-16.4,49.3-28.4,96.4-37.1,140.3c-12.7-1.6-27.4-2.4-43.6-1.6C297.6,329.5,269.5,337.7,249.5,345.6z
	"/>
<linearGradient id="SVGID_00000157995632014753894520000008885796197447624324_" gradientUnits="userSpaceOnUse" x1="248" y1="346" x2="248" y2="121">
	<stop  offset="0" style="stop-color:#EAEAEA"/>
	<stop  offset="0.1164" style="stop-color:#EAE5E5"/>
	<stop  offset="0.2613" style="stop-color:#EBD5D5"/>
	<stop  offset="0.421" style="stop-color:#ECBCBC"/>
	<stop  offset="0.5916" style="stop-color:#ED9999"/>
	<stop  offset="0.7709" style="stop-color:#EF6B6B"/>
	<stop  offset="0.9546" style="stop-color:#F13535"/>
	<stop  offset="1" style="stop-color:#F22626"/>
</linearGradient>
<path style="fill:url(#SVGID_00000157995632014753894520000008885796197447624324_);" d="M386,212.6c-2.1,26.6-18.3,44.6-25,51.3
	c-37.7,27.4-75.3,54.7-113,82.1c-37.7-27.4-75.3-54.7-113-82.1c-6.7-6.7-22.9-24.7-25-51.3c-3.4-42.4,31-81.9,68-90.1
	c37.1-8.1,65.9,18.8,70,22.8c4.1-4,32.9-30.9,70-22.8C355,130.7,389.4,170.2,386,212.6z"/>
</svg>
